<svg viewBox="0 0 32 32" enable-background="new 0 0 32 32" version="1.1" xml:space="preserve" xmlns="http://www.w3.org/2000/svg" xmlns:xlink="http://www.w3.org/1999/xlink" fill="#000000"><g id="SVGRepo_bgCarrier" stroke-width="0"></g><g id="SVGRepo_tracerCarrier" stroke-linecap="round" stroke-linejoin="round" stroke="#6ea081" stroke-width="0.704"> <g id="Layer_2"></g> <g id="Layer_3"></g> <g id="Layer_4"></g> <g id="Layer_5"> <g> <path d="M12.49,3c-0.26,0-0.51,0.1-0.7,0.29L3.3,11.64C3.11,11.82,3,12.08,3,12.35v17.23L29.58,3H12.49z" fill="#408053"></path> <path d="M22.21,22.21L13.42,31H30c0.28,0,0.52-0.11,0.71-0.29C30.89,30.52,31,30.28,31,30V13.42L22.21,22.21z" fill="#408053"></path> </g> <g> <path d="M31,4v9.42L13.42,31H4c-0.55,0-1-0.45-1-1v-0.42L29.58,3H30C30.55,3,31,3.45,31,4z" fill="#408053"></path> </g> <path d="M30.71,30.71C30.52,30.89,30.28,31,30,31H13.42l8.79-8.79L30.71,30.71z" fill="#183423"></path> <path d="M8,1C4.14,1,1,4.09,1,7.89c0,3.58,5.66,9.2,6.3,9.83C7.5,17.91,7.75,18,8,18s0.5-0.09,0.7-0.28 c0.64-0.63,6.3-6.25,6.3-9.83C15,4.09,11.86,1,8,1z" fill="#8ab296"></path> <path d="M10,7.89c0,1.11-0.9,2-2,2S6,9,6,7.89c0-1.1,0.9-2,2-2S10,6.79,10,7.89z" fill="#408053"></path> <g> <path d="M31,4v9.42L13.42,31H4c-0.55,0-1-0.45-1-1v-0.42L29.58,3H30C30.55,3,31,3.45,31,4z" fill="#8ab296"></path> </g> </g> <g id="Layer_6"></g> <g id="Layer_7"></g> <g id="Layer_8"></g> <g id="Layer_9"></g> <g id="Layer_10"></g> <g id="Layer_11"></g> <g id="Layer_12"></g> <g id="Layer_13"></g> <g id="Layer_14"></g> <g id="Layer_15"></g> <g id="Layer_16"></g> <g id="Layer_17"></g> <g id="Layer_18"></g> <g id="Layer_19"></g> <g id="Maps_11_"></g> <g id="Maps_10_"></g> <g id="Maps_9_"></g> <g id="Maps_8_"></g> <g id="Maps_7_"></g> <g id="Maps_6_"></g> <g id="Maps_5_"></g> <g id="Maps_4_"></g> <g id="Maps_3_"></g> <g id="Maps_2_"></g> <g id="Maps_1_"></g> <g id="Maps"></g> </g><g id="SVGRepo_iconCarrier"> <g id="Layer_2"></g> <g id="Layer_3"></g> <g id="Layer_4"></g> <g id="Layer_5"> <g> <path d="M12.49,3c-0.26,0-0.51,0.1-0.7,0.29L3.3,11.64C3.11,11.82,3,12.08,3,12.35v17.23L29.58,3H12.49z" fill="#408053"></path> <path d="M22.21,22.21L13.42,31H30c0.28,0,0.52-0.11,0.71-0.29C30.89,30.52,31,30.28,31,30V13.42L22.21,22.21z" fill="#408053"></path> </g> <g> <path d="M31,4v9.42L13.42,31H4c-0.55,0-1-0.45-1-1v-0.42L29.58,3H30C30.55,3,31,3.45,31,4z" fill="#408053"></path> </g> <path d="M30.71,30.71C30.52,30.89,30.28,31,30,31H13.42l8.79-8.79L30.71,30.71z" fill="#183423"></path> <path d="M8,1C4.14,1,1,4.09,1,7.89c0,3.58,5.66,9.2,6.3,9.83C7.5,17.91,7.75,18,8,18s0.5-0.09,0.7-0.28 c0.64-0.63,6.3-6.25,6.3-9.83C15,4.09,11.86,1,8,1z" fill="#8ab296"></path> <path d="M10,7.89c0,1.11-0.9,2-2,2S6,9,6,7.89c0-1.1,0.9-2,2-2S10,6.79,10,7.89z" fill="#408053"></path> <g> <path d="M31,4v9.42L13.42,31H4c-0.55,0-1-0.45-1-1v-0.42L29.58,3H30C30.55,3,31,3.45,31,4z" fill="#8ab296"></path> </g> </g> <g id="Layer_6"></g> <g id="Layer_7"></g> <g id="Layer_8"></g> <g id="Layer_9"></g> <g id="Layer_10"></g> <g id="Layer_11"></g> <g id="Layer_12"></g> <g id="Layer_13"></g> <g id="Layer_14"></g> <g id="Layer_15"></g> <g id="Layer_16"></g> <g id="Layer_17"></g> <g id="Layer_18"></g> <g id="Layer_19"></g> <g id="Maps_11_"></g> <g id="Maps_10_"></g> <g id="Maps_9_"></g> <g id="Maps_8_"></g> <g id="Maps_7_"></g> <g id="Maps_6_"></g> <g id="Maps_5_"></g> <g id="Maps_4_"></g> <g id="Maps_3_"></g> <g id="Maps_2_"></g> <g id="Maps_1_"></g> <g id="Maps"></g> </g></svg>