<svg width="60" height="16" viewBox="0 0 60 16" fill="none" xmlns="http://www.w3.org/2000/svg">
  <ellipse cx="37.6026" cy="14.9815" rx="1.01857" ry="1.01857" fill="#4DA768" />
  <path
    d="M6.6416 0C8.43824 0 9.81096 0.466708 10.7588 1.40039C11.7208 2.33408 12.1807 3.65004 12.1807 5.34766C12.1806 7.045 11.7205 8.36031 10.7588 9.29395C9.81096 10.2276 8.43824 10.6953 6.6416 10.6953H6.19629V7.29395C7.29938 7.12415 7.8515 6.4775 7.85156 5.34766C7.85156 4.01786 7.08742 3.35254 5.55957 3.35254H4.15918V16H0V0H6.6416ZM27.0078 16H22.5732L21.6182 13.2197H17.8389L18.9355 10.0586H20.5146L18.6475 4.73242L17.0703 9.22754H17.0684L16.8799 9.77051L16.7793 10.0586H16.7803L15.6826 13.2197H15.6768L15.1172 14.8467L14.7178 16H10.2861L16.377 0H20.918L27.0078 16ZM33.6553 8.35938V16H29.4531V8.31836L23.6396 0H27.8223L33.6553 8.35938ZM34.8838 6.55957L32.7861 3.55566L35.2754 0H39.4697L34.8838 6.55957Z"
    fill="#273271" />
  <path
    d="M45.665 16H41.5059V6.69141H45.665V16ZM54.334 0C56.1304 3.59323e-05 57.5024 0.466884 58.4502 1.40039C59.4122 2.33408 59.8828 3.65004 59.8828 5.34766C59.8828 7.04513 59.4121 8.3603 58.4502 9.29395C57.5024 10.2276 56.1305 10.6953 54.334 10.6953H53.8975V7.29297C54.997 7.12111 55.5537 6.47455 55.5537 5.34766C55.5537 4.01798 54.7795 3.35266 53.252 3.35254H51.8613V7.17285H51.8604V11.332H51.8613V16H47.7021V0H54.334ZM45.665 4.6543H41.5059V0H45.665V4.6543Z"
    fill="#4DA768" />
</svg>