<svg width="87" height="24" viewBox="0 0 87 24" fill="none" xmlns="http://www.w3.org/2000/svg">
<path d="M7.54348 12L18.5 12M4.5 12H4.7029M8.4058 8.60145H8.6087M11.5 5.2029V5M11.5 19V18.7971M11.5 12V8.04348M11.5 15.9565V15.0942M5.56522 8.60145H4.5M8.4058 5H4.5M14.6957 19H18.3986C18.4546 19 18.5 18.9546 18.5 18.8986V15.1957C18.5 15.1396 18.4546 15.0942 18.3986 15.0942H14.6957C14.6396 15.0942 14.5942 15.1396 14.5942 15.1957V18.8986C14.5942 18.9546 14.6396 19 14.6957 19ZM14.6957 8.9058H18.3986C18.4546 8.9058 18.5 8.86038 18.5 8.80435V5.10145C18.5 5.04542 18.4546 5 18.3986 5H14.6957C14.6396 5 14.5942 5.04542 14.5942 5.10145V8.80435C14.5942 8.86038 14.6396 8.9058 14.6957 8.9058ZM4.60145 19H8.30435C8.36038 19 8.4058 18.9546 8.4058 18.8986V15.1957C8.4058 15.1396 8.36038 15.0942 8.30435 15.0942H4.60145C4.54542 15.0942 4.5 15.1396 4.5 15.1957V18.8986C4.5 18.9546 4.54542 19 4.60145 19Z" stroke="#273271" stroke-width="1.6" stroke-linecap="round"/>
<path d="M61.1206 18.9814C61.1206 19.544 60.6646 20 60.1021 20C59.5395 20 59.0835 19.544 59.0835 18.9814C59.0835 18.4189 59.5395 17.9629 60.1021 17.9629C60.6646 17.9629 61.1206 18.4189 61.1206 18.9814Z" fill="#4DA768"/>
<path d="M29.1419 4C30.9386 4 32.3108 4.46684 33.2587 5.40052C34.2206 6.33421 34.6804 7.64987 34.6804 9.34749C34.6804 11.0451 34.2206 12.3607 33.2587 13.2944C32.3108 14.2281 30.9386 14.695 29.1419 14.695H28.6963V11.297C29.7997 11.1273 30.3515 10.4776 30.3515 9.34749C30.3515 8.01769 29.5876 7.35278 28.0597 7.35278H26.6592V20H22.5V4H29.1419Z" fill="#273271"/>
<path d="M49.5078 20H45.0728L44.1179 17.2201H40.3387L41.436 14.0584H43.0145L41.1471 8.73211L39.5706 13.2287L39.5679 13.2277L38.1825 17.2201H38.1763L37.5778 18.9623L37.2177 20H32.7863L38.8766 4H43.4177L49.5078 20Z" fill="#273271"/>
<path d="M56.1552 12.3587V20H51.9536V12.3183L46.1393 4H50.3221L56.1552 12.3587Z" fill="#273271"/>
<path d="M57.3841 10.5601L55.2874 7.5555L57.7759 4H61.9695L57.3841 10.5601Z" fill="#273271"/>
<path d="M68.1657 20H64.0066V10.6914H68.1657V20Z" fill="#4DA768"/>
<path d="M76.8345 4C78.6311 4 80.0034 4.46685 80.9512 5.40052C81.9132 6.33421 82.3833 7.64987 82.3833 9.34749C82.3833 11.0451 81.9132 12.3607 80.9512 13.2944C80.0034 14.2281 78.6312 14.695 76.8345 14.695H76.3992V11.2956C77.4984 11.1236 78.0543 10.4743 78.0543 9.34749C78.0543 8.0177 77.2801 7.35278 75.7523 7.35278H74.362V20H70.2029V4H76.8345Z" fill="#4DA768"/>
<path d="M68.1657 8.6543H64.0066V4H68.1657V8.6543Z" fill="#4DA768"/>
</svg>
