<svg width="32" height="32" viewBox="0 0 32 32" fill="none" xmlns="http://www.w3.org/2000/svg">
  <rect width="32" height="32" rx="16" fill="#D5D9E0" />
  <g clip-path="url(#clip0_90_376)">
    <path
      d="M13.499 11.9165C17.1348 11.9165 20.0828 14.8638 20.083 18.4995C20.083 22.1354 17.1349 25.0835 13.499 25.0835C9.86333 25.0833 6.91602 22.1353 6.91602 18.4995C6.91623 14.8639 9.86346 11.9167 13.499 11.9165ZM13.499 13.4165C10.6919 13.4167 8.41623 15.6924 8.41602 18.4995C8.41602 21.3068 10.6918 23.5833 13.499 23.5835C16.3065 23.5835 18.583 21.307 18.583 18.4995C18.5828 15.6922 16.3063 13.4165 13.499 13.4165ZM13.7354 15.9097C13.9447 15.9337 14.1456 15.9913 14.3379 16.0825C14.5325 16.1739 14.7032 16.2953 14.8486 16.4468C14.994 16.5958 15.0997 16.7742 15.166 16.981L14.5342 17.2368C14.4978 17.1191 14.4277 17.0167 14.3252 16.9302C14.2226 16.8414 14.0984 16.7716 13.9531 16.7212C13.81 16.6708 13.6583 16.646 13.498 16.646C13.3269 16.6436 13.1663 16.6748 13.0166 16.7397C12.8691 16.8023 12.7484 16.8889 12.6543 16.9995C12.5602 17.1101 12.5127 17.2386 12.5127 17.3853C12.5127 17.5656 12.5569 17.7026 12.6445 17.7964C12.7322 17.8901 12.8497 17.9597 12.9971 18.0054C13.1468 18.0487 13.3141 18.0884 13.498 18.1245C13.793 18.1774 14.0653 18.2656 14.3154 18.3882C14.5677 18.5108 14.77 18.6742 14.9219 18.8784C15.0759 19.0804 15.1533 19.3297 15.1533 19.6255C15.1533 19.8971 15.0891 20.1386 14.9609 20.3501C14.8327 20.5593 14.6603 20.729 14.4443 20.8589C14.2305 20.9863 13.9941 21.0674 13.7354 21.1011V21.8335H13.2637V21.1011C13.0477 21.077 12.8421 21.0196 12.6475 20.9282C12.455 20.8368 12.2869 20.7145 12.1436 20.563C12.0005 20.4116 11.8971 20.2361 11.833 20.0366L12.458 19.7729C12.4944 19.8884 12.5643 19.9921 12.667 20.0835C12.7718 20.1725 12.8958 20.242 13.0391 20.2925C13.1845 20.343 13.3376 20.3687 13.498 20.3687C13.6691 20.3686 13.8298 20.3374 13.9795 20.2749C14.1312 20.2124 14.2528 20.1256 14.3447 20.0151C14.4388 19.9045 14.4863 19.7746 14.4863 19.6255C14.4863 19.4716 14.4363 19.3452 14.3379 19.2466C14.2417 19.1481 14.1175 19.0699 13.9658 19.0122C13.8163 18.9546 13.6604 18.9112 13.498 18.8823C13.1836 18.8246 12.9006 18.74 12.6504 18.6294C12.4026 18.5188 12.2059 18.364 12.0605 18.1646C11.9173 17.965 11.8457 17.7051 11.8457 17.3853C11.8457 17.1135 11.9098 16.8713 12.0381 16.6597C12.1664 16.4482 12.338 16.2793 12.5518 16.1519C12.7678 16.022 13.0049 15.9409 13.2637 15.9097V15.1665H13.7354V15.9097ZM18.499 6.9165C22.1348 6.9165 25.0828 9.86382 25.083 13.4995C25.083 15.2931 24.364 16.9203 23.2012 18.1069L23.1455 18.1597C22.8534 18.4029 22.418 18.3895 22.1406 18.1177C21.8453 17.8277 21.8402 17.3528 22.1299 17.0571L22.2949 16.8813C23.0965 15.9824 23.583 14.7982 23.583 13.4995C23.5828 10.6922 21.3063 8.4165 18.499 8.4165C17.1139 8.41661 15.8589 8.96955 14.9414 9.86865C14.6456 10.1585 14.1707 10.1537 13.8809 9.85791C13.5913 9.56208 13.596 9.08718 13.8916 8.79736C15.0781 7.63465 16.7057 6.91661 18.499 6.9165Z"
      fill="#405174" />
  </g>
  <defs>
    <clipPath id="clip0_90_376">
      <rect width="20" height="20" fill="white" transform="translate(6 6)" />
    </clipPath>
  </defs>
</svg>