<svg width="32" height="32" viewBox="0 0 32 32" fill="none" xmlns="http://www.w3.org/2000/svg">
  <rect width="32" height="32" rx="16" fill="#D5D9E0" />
  <g clip-path="url(#clip0_90_423)">
    <path
      d="M17.2739 12.9597C16.7969 13.2998 16.2132 13.4998 15.5827 13.4998C13.9719 13.4998 12.666 12.194 12.666 10.5832C12.666 8.97234 13.9719 7.6665 15.5827 7.6665C16.6268 7.6665 17.5428 8.21519 18.0581 9.03996M10.9993 22.7391H13.1746C13.4582 22.7391 13.7401 22.7729 14.015 22.8404L16.3134 23.3989C16.8121 23.5204 17.3317 23.5322 17.8356 23.4343L20.3768 22.9399C21.0481 22.8092 21.6657 22.4877 22.1496 22.0169L23.9476 20.2679C24.461 19.7693 24.461 18.9602 23.9476 18.4607C23.4853 18.011 22.7533 17.9604 22.2303 18.3418L20.1348 19.8705C19.8348 20.0899 19.4696 20.208 19.0941 20.208H17.0706L18.3586 20.208C19.0845 20.208 19.6726 19.6359 19.6726 18.9298V18.6741C19.6726 18.0878 19.2623 17.5765 18.6777 17.4347L16.6898 16.9513C16.3663 16.8728 16.035 16.8332 15.702 16.8332C14.898 16.8332 13.4426 17.4989 13.4426 17.4989L10.9993 18.5206M22.666 11.4165C22.666 13.0273 21.3602 14.3332 19.7493 14.3332C18.1385 14.3332 16.8327 13.0273 16.8327 11.4165C16.8327 9.80567 18.1385 8.49984 19.7493 8.49984C21.3602 8.49984 22.666 9.80567 22.666 11.4165ZM7.66602 18.1665L7.66602 22.9998C7.66602 23.4665 7.66602 23.6999 7.75684 23.8782C7.83674 24.035 7.96422 24.1624 8.12102 24.2423C8.29928 24.3332 8.53264 24.3332 8.99935 24.3332H9.66602C10.1327 24.3332 10.3661 24.3332 10.5443 24.2423C10.7011 24.1624 10.8286 24.035 10.9085 23.8782C10.9993 23.6999 10.9993 23.4665 10.9993 22.9998V18.1665C10.9993 17.6998 10.9993 17.4664 10.9085 17.2882C10.8286 17.1314 10.7011 17.0039 10.5443 16.924C10.3661 16.8332 10.1327 16.8332 9.66602 16.8332L8.99935 16.8332C8.53264 16.8332 8.29928 16.8332 8.12102 16.924C7.96422 17.0039 7.83674 17.1314 7.75684 17.2882C7.66602 17.4664 7.66602 17.6998 7.66602 18.1665Z"
      stroke="#405174" stroke-width="1.5" stroke-linecap="round" stroke-linejoin="round" />
  </g>
  <defs>
    <clipPath id="clip0_90_423">
      <rect width="20" height="20" fill="white" transform="translate(6 6)" />
    </clipPath>
  </defs>
</svg>