<svg width="32" height="32" viewBox="0 0 32 32" fill="none" xmlns="http://www.w3.org/2000/svg">
  <rect width="32" height="32" rx="16" fill="#D5D9E0" />
  <path
    d="M19.3327 20.9998L21.8327 23.4998M21.8327 23.4998L24.3327 20.9998M21.8327 23.4998V18.4998M24.3327 14.3332H7.66602M24.3327 15.9998V12.8332C24.3327 11.8998 24.3327 11.433 24.151 11.0765C23.9912 10.7629 23.7363 10.508 23.4227 10.3482C23.0661 10.1665 22.5994 10.1665 21.666 10.1665H10.3327C9.39926 10.1665 8.93255 10.1665 8.57603 10.3482C8.26243 10.5079 8.00746 10.7629 7.84767 11.0765C7.66602 11.433 7.66602 11.8997 7.66602 12.8332V19.1665C7.66602 20.0999 7.66602 20.5666 7.84767 20.9232C8.00746 21.2368 8.26243 21.4917 8.57603 21.6515C8.93255 21.8332 9.39926 21.8332 10.3327 21.8332H15.9993"
    stroke="#405174" stroke-width="1.5" stroke-linecap="round" stroke-linejoin="round" />
</svg>