<svg width="32" height="32" viewBox="0 0 32 32" fill="none" xmlns="http://www.w3.org/2000/svg">
<rect width="32" height="32" rx="16" fill="#D5D9E0"/>
<path d="M17.666 11.8335H19.6137C19.8176 11.8335 19.9195 11.8335 20.0154 11.8565C20.1004 11.8769 20.1817 11.9106 20.2563 11.9563C20.3404 12.0078 20.4124 12.0799 20.5565 12.224L23.9422 15.6096C24.0863 15.7538 24.1583 15.8258 24.2099 15.9099C24.2556 15.9845 24.2892 16.0658 24.3097 16.1508C24.3327 16.2467 24.3327 16.3486 24.3327 16.5524V18.9168C24.3327 19.3051 24.3327 19.4993 24.2692 19.6524C24.1847 19.8566 24.0224 20.0188 23.8183 20.1034C23.6651 20.1668 23.471 20.1668 23.0827 20.1668M18.916 20.1668H17.666M17.666 20.1668V12.0002C17.666 11.0667 17.666 10.6 17.4844 10.2435C17.3246 9.92991 17.0696 9.67494 16.756 9.51515C16.3995 9.3335 15.9328 9.3335 14.9993 9.3335H10.3327C9.39926 9.3335 8.93255 9.3335 8.57603 9.51515C8.26243 9.67494 8.00746 9.92991 7.84767 10.2435C7.66602 10.6 7.66602 11.0667 7.66602 12.0002V18.5002C7.66602 19.4206 8.41221 20.1668 9.33268 20.1668M17.666 20.1668H14.3327M14.3327 20.1668C14.3327 21.5475 13.2134 22.6668 11.8327 22.6668C10.452 22.6668 9.33268 21.5475 9.33268 20.1668M14.3327 20.1668C14.3327 18.7861 13.2134 17.6668 11.8327 17.6668C10.452 17.6668 9.33268 18.7861 9.33268 20.1668M23.0827 20.5835C23.0827 21.7341 22.1499 22.6668 20.9993 22.6668C19.8488 22.6668 18.916 21.7341 18.916 20.5835C18.916 19.4329 19.8488 18.5002 20.9993 18.5002C22.1499 18.5002 23.0827 19.4329 23.0827 20.5835Z" stroke="#405174" stroke-width="1.5" stroke-linecap="round" stroke-linejoin="round"/>
</svg>
