<svg width="32" height="32" viewBox="0 0 32 32" fill="none" xmlns="http://www.w3.org/2000/svg">
<rect width="32" height="32" rx="16" fill="#D5D9E0"/>
<path d="M24.3327 23.5V21.8333C24.3327 20.2801 23.2704 18.9751 21.8327 18.605M18.916 8.7423C20.1376 9.23679 20.9993 10.4344 20.9993 11.8333C20.9993 13.2322 20.1376 14.4299 18.916 14.9244M20.166 23.5C20.166 21.9469 20.166 21.1703 19.9123 20.5577C19.574 19.741 18.9251 19.092 18.1083 18.7537C17.4957 18.5 16.7192 18.5 15.166 18.5H12.666C11.1129 18.5 10.3363 18.5 9.72374 18.7537C8.90698 19.092 8.25806 19.741 7.91975 20.5577C7.66602 21.1703 7.66602 21.9469 7.66602 23.5M17.2493 11.8333C17.2493 13.6743 15.757 15.1667 13.916 15.1667C12.0751 15.1667 10.5827 13.6743 10.5827 11.8333C10.5827 9.99238 12.0751 8.5 13.916 8.5C15.757 8.5 17.2493 9.99238 17.2493 11.8333Z" stroke="#405174" stroke-width="1.5" stroke-linecap="round" stroke-linejoin="round"/>
</svg>
