<svg width="41" height="40" viewBox="0 0 41 40" fill="none" xmlns="http://www.w3.org/2000/svg">
<path d="M10.1178 20L38.2917 20M2.29175 20H2.81349M12.3352 11.2609H12.857M20.2917 2.52174V2M20.2917 38V37.4783M20.2917 20V9.82609M20.2917 30.1739V27.9565M5.03088 11.2609H2.29175M12.3352 2H2.29175M28.5091 38H38.0309C38.175 38 38.2917 37.8832 38.2917 37.7391V28.2174C38.2917 28.0733 38.175 27.9565 38.0309 27.9565H28.5091C28.3651 27.9565 28.2483 28.0733 28.2483 28.2174V37.7391C28.2483 37.8832 28.3651 38 28.5091 38ZM28.5091 12.0435H38.0309C38.175 12.0435 38.2917 11.9267 38.2917 11.7826V2.26087C38.2917 2.1168 38.175 2 38.0309 2H28.5091C28.3651 2 28.2483 2.1168 28.2483 2.26087V11.7826C28.2483 11.9267 28.3651 12.0435 28.5091 12.0435ZM2.55262 38H12.0744C12.2184 38 12.3352 37.8832 12.3352 37.7391V28.2174C12.3352 28.0733 12.2184 27.9565 12.0744 27.9565H2.55262C2.40854 27.9565 2.29175 28.0733 2.29175 28.2174V37.7391C2.29175 37.8832 2.40854 38 2.55262 38Z" stroke="#273271" stroke-width="4" stroke-linecap="round"/>
</svg>
